<svg xmlns="http://www.w3.org/2000/svg" width="32" height="32" viewBox="0 0 32 32"><path d="M32 14c0-7.456-6.013-14-7.5-14S17 6.544 17 14c0 5.92 4.07 10.624 6.268 12.314L17.938 32h13.125l-5.33-5.686C27.93 24.624 32 19.92 32 14zm-9.375-6c0-1.104.84-2 1.875-2s1.875.896 1.875 2-.84 2-1.875 2-1.875-.896-1.875-2zM4.99 23h5v5.568h-5z"/><path d="M9.5 26.88c-.814 0-1.53.386-2 .978a2.546 2.546 0 0 0-2-.98A2.56 2.56 0 0 0 5.5 32c.814 0 1.53-.387 2-.98.47.593 1.186.98 2 .98a2.56 2.56 0 0 0 0-5.12zM10 21s5-6.316 5-13.5C15 3.744 11.638.002 7.505 0 3.373.002 0 3.744 0 7.5 0 14.684 4.997 21 4.997 21H10z"/></svg>