<svg xmlns="http://www.w3.org/2000/svg" width="32" height="32" viewBox="0 0 32 32"><path d="M23.566 5.697a27.568 27.568 0 0 0-11.443 6.848A25.56 25.56 0 0 0 6.07 22.75L31.514 32l-7.95-26.303zm-4.232 7.807a1.984 1.984 0 0 1 2.538-1.184 1.983 1.983 0 0 1 1.182 2.54 1.977 1.977 0 0 1-2.536 1.18 1.976 1.976 0 0 1-1.184-2.536zm-5.287 9.677a3.462 3.462 0 1 1 2.365-6.508 3.47 3.47 0 0 1 2.07 4.44 3.464 3.464 0 0 1-4.435 2.07zm9.773 3.722a2.48 2.48 0 0 1-1.487-3.176 2.478 2.478 0 0 1 3.17-1.48 2.475 2.475 0 0 1 1.48 3.17 2.472 2.472 0 0 1-3.163 1.486z"/><path d="M11.026 10.826A27.546 27.546 0 0 1 22.99 3.79L21.843 0A31.48 31.48 0 0 0 8.226 8.026 31.48 31.48 0 0 0 .486 20.72l3.72 1.352a27.56 27.56 0 0 1 6.82-11.246z"/></svg>