<svg xmlns="http://www.w3.org/2000/svg" width="32" height="32" viewBox="0 0 32 32"><path d="M11.07 1.356C10.67.558 9.884 0 8.85 0S7.025.558 6.626 1.356C5.257 1.57 4.18 2.64 4.18 3.934c0 1.22 1.193 2.274 2.448 2.566V12h4.443V6.5c1.255-.292 2.412-1.346 2.412-2.566 0-1.294-1.043-2.363-2.412-2.578zM21.294 9v1.678c1-1.384 3.265-1.72 4.02-1.72.167 0 .18.017.205.042.136.137.03 1.922-1.047 3-.626.626-1.506.902-2.147 1.002L24.438 13c2.23.296 4.98 2.06 4.98 6.03 0 4.006-2.603 8.97-6.02 8.97-1.09 0-1.743-.5-2.033-.5-.393 0-1.004.5-2.063.5-3.078 0-6.125-5.066-6.125-8.97 0-4.06 2.67-5.79 4.933-6.023l2.184-.003V9h1z"/><path d="M11.177 19.03c0-3.455 1.418-5.632 3.22-6.84.002-.063.007-.126.007-.19 0-1.473-1.508-3.398-3.334-3.98-.72-.228-1.492-.31-2.24-.31-.736-.002-1.493.066-2.202.29-1.828.577-3.334 2.52-3.334 4 0 3.434 3.275 15.912 3.744 18 .235 1.046.84 2 1.81 2s1.543-.983 1.777-2.008c.112-.49.805-3.568 1.46-6.487-.575-1.465-.908-3.017-.908-4.476z"/></svg>