<svg xmlns="http://www.w3.org/2000/svg" width="32" height="32" viewBox="0 0 32 32"><path d="M28.494.002h-8.988l-2.006 2v28l2.006 2h8.988l2.006-2v-28l-2.006-2zm-7.485 29a1.5 1.5 0 1 1-.002-3 1.5 1.5 0 0 1 0 3zm-.028-8.012a1.5 1.5 0 1 1 0-3 1.5 1.5 0 0 1 0 3zM21 14.002a1.5 1.5 0 1 1 0-3 1.5 1.5 0 0 1 0 3zm0-8a1.5 1.5 0 1 1 0-3 1.5 1.5 0 0 1 0 3zm6.008 23.01a1.5 1.5 0 1 1 0-3 1.5 1.5 0 0 1 0 3zM27 21.007a1.5 1.5 0 1 1 0-3 1.5 1.5 0 0 1 0 3zm0-7.005a1.5 1.5 0 1 1 0-3 1.5 1.5 0 0 1 0 3zm.007-8c-.828 0-1.5-.657-1.5-1.485 0-.828.672-1.515 1.5-1.515a1.5 1.5 0 0 1 0 3zM11.332.875c-1.14-.146-1.848-.883-3.22-.877-1.45.006-2.4.762-3.566.93-1.166.168-2.548-.254-2.868.067-.95.948 2.093 5.02 4.447 7.075-2.463 1.155-4.24 4.335-4.24 8.077 0 3.636 1.68 6.74 4.032 7.975-2.32 2.107-5.156 5.963-4.235 6.884.32.32 1.7-.1 2.867.066 1.165.168 2.115.924 3.567.93 1.37.006 2.078-.73 3.22-.877 1.272-.164 2.924.243 3.286-.12.987-.987-1.868-4.803-4.208-6.89 2.35-1.238 4.02-4.338 4.02-7.97 0-3.738-1.774-6.917-4.234-8.074 2.375-2.037 5.438-6.06 4.42-7.077-.363-.36-2.014.046-3.288-.118z"/></svg>