<svg xmlns="http://www.w3.org/2000/svg" width="32" height="32" viewBox="0 0 32 32"><path fill="#0D0D0D" d="M23.848 5.094C22.498 2.096 19.5 0 16 0S9.502 2.096 8.152 5.094C3.525 5.898 0 9.91 0 14.77c0 4.582 3.145 8.4 7.385 9.497V32h17.231v-7.733C28.855 23.17 32 19.352 32 14.77c0-4.86-3.525-8.872-8.152-9.676zm.266 17.236l-1.5.39V26H9.387v-1.41c.153.01.304.025.46.025 2.34 0 4.39-.922 6.154-2.688V19.24c-1.31 2.028-3.56 3.392-6.154 3.392a6.968 6.968 0 0 1-1.636-.22l-.324-.082C4.42 21.434 2 18.324 2 14.77c0-3.81 2.732-7.05 6.496-7.705l1.045-.182.437-.97C11.047 3.538 13.41 2 16 2s4.953 1.536 6.023 3.914l.436.97 1.044.18A7.813 7.813 0 0 1 30 14.77c0 3.554-2.42 6.664-5.886 7.56z"/></svg>